{"asset":{"version":"2.0","generator":"VECTARY"},"nodes":[{"translation":[-0.028821160669658112,-0.04378127039200513,0.4701227524608134],"scale":[1,1,1],"rotation":[0.016083082513445257,-0.030130643757096287,0.0004848765786975573,0.9994164515647879],"name":"Camera 1","camera":0},{"translation":[0.0026973762599409525,-0.023616918494121793,0.4714622050374016],"scale":[1,1,1],"rotation":[-5.551115123125783e-17,3.3306690738754696e-16,1.6653345369377348e-16,1],"name":"Camera","camera":1},{"translation":[0.00009842399917094013,-0.16031731226426105,-0.1050689559961722],"scale":[0.0001803141195596793,0.0001803141195596793,0.0001803141195596793],"rotation":[-0.7071067811865475,0,0,0.7071067811865476],"name":"Mesh head","children":[3,4]},{"translation":[-1.6905364990234375,-348.2828826904297,827.4192504882812],"scale":[1,1,1],"rotation":[0,0,0,1],"name":"Eyes","mesh":0},{"translation":[0,95.84383010864258,-8492.141723632812],"scale":[10,10,10],"rotation":[0,0,0,1],"name":"Head","mesh":1}],"cameras":[{"name":"Camera 1","type":"perspective","extras":{"targetDistance":0.544084305263773},"perspective":{"aspectRatio":1.5421115065243178,"yfov":0.6108652381980153,"zfar":40.63926752677605,"znear":0.011629415857377057}},{"name":"Camera","type":"perspective","extras":{"targetDistance":0.5440843052637733},"perspective":{"aspectRatio":1.6,"yfov":0.6108652381980153,"zfar":40.63926752677607,"znear":0.011629415857377057}}],"materials":[{"pbrMetallicRoughness":{"baseColorFactor":[1,1,1,1],"metallicFactor":1,"roughnessFactor":0.56},"name":"Metallic","emissiveFactor":[0,0,0],"extensions":{},"alphaMode":"OPAQUE","doubleSided":false}],"meshes":[{"primitives":[{"mode":4,"attributes":{"POSITION":1,"NORMAL":2,"TEXCOORD_0":3},"material":0,"indices":0}]},{"primitives":[{"mode":4,"attributes":{"POSITION":5,"NORMAL":6,"TEXCOORD_0":7},"material":0,"indices":4}]}],"accessors":[{"bufferView":0,"byteOffset":0,"componentType":5125,"count":23808,"type":"SCALAR"},{"bufferView":1,"byteOffset":0,"componentType":5126,"count":4286,"max":[258.22467041015625,91.46485900878906,182.9296875],"min":[-258.22467041015625,-91.46485900878906,0],"type":"VEC3"},{"bufferView":2,"byteOffset":0,"componentType":5126,"count":4286,"type":"VEC3"},{"bufferView":3,"byteOffset":0,"componentType":5126,"count":4286,"type":"VEC2"},{"bufferView":4,"byteOffset":0,"componentType":5125,"count":93654,"type":"SCALAR"},{"bufferView":5,"byteOffset":0,"componentType":5126,"count":41089,"max":[43.17900085449219,50.06804275512695,1000.67822265625],"min":[-43.17900085449219,-69.23680877685547,849.2141723632812],"type":"VEC3"},{"bufferView":6,"byteOffset":0,"componentType":5126,"count":41089,"type":"VEC3"},{"bufferView":7,"byteOffset":0,"componentType":5126,"count":41089,"type":"VEC2"}],"bufferViews":[{"buffer":0,"byteOffset":0,"byteLength":95232,"target":34963},{"buffer":0,"byteOffset":95232,"byteLength":51432,"target":34962},{"buffer":0,"byteOffset":146664,"byteLength":51432,"target":34962},{"buffer":0,"byteOffset":198096,"byteLength":34288,"target":34962},{"buffer":0,"byteOffset":232384,"byteLength":374616,"target":34963},{"buffer":0,"byteOffset":607000,"byteLength":493068,"target":34962},{"buffer":0,"byteOffset":1100068,"byteLength":493068,"target":34962},{"buffer":0,"byteOffset":1593136,"byteLength":328712,"target":34962}],"scene":0,"scenes":[{"nodes":[0,1,2],"name":"Project Name"}],"extensionsUsed":["KHR_texture_transform"],"buffers":[{"byteLength":1921848,"uri":"ProjectName.bin"}]}